<svg id="Layer_1" enable-background="new 0 0 511.997 511.997" height="512" viewBox="0 0 511.997 511.997" width="512" xmlns="http://www.w3.org/2000/svg"><g><path d="m335.274 258.137c-2.3 18.79-10.75 36.7-24.67 50.62-16.92 16.93-40.57 24.9-70.27 23.7-20.83-.83-30.45 4.62-32.03 5.61-6.38 5.59-14.48 8.65-23.03 8.65-9.35 0-18.14-3.64-24.75-10.25-11.41-11.41-13.25-29.01-5.46-42.42l5.59-8.86c1.9-4.63 4.47-13.77 3.87-28.54-1.19-29.71 6.78-53.35 23.7-70.27 13.86-13.85 31.58-22.43 50.74-24.72 2.71-13.03 8.58-25.22 17.05-35.46h-200.98c-22.08 0-40.05 17.96-40.05 40.04v198.59h417.8v-197.19l-50.77 62.22c-11.94 14.59-28.52 24.52-46.74 28.28z"/><path d="m14.984 407.627c0 22.07 17.97 40.03 40.05 40.03h113.819v34.34h-25.228c-8.284 0-15 6.716-15 15s6.716 15 15 15h160.513c8.284 0 15-6.716 15-15s-6.716-15-15-15h-25.228v-34.34h113.823c22.08 0 40.05-17.96 40.05-40.03v-12.8h-417.8v12.8z"/><path d="m182.1 307.834c-.003.002-.006.005-.008.008-.002.001-.003.002-.004.004l-.004.004c-.002.001-.003.003-.005.005-.001.003-.002.003-.005.005l-.001.001c-.001.002-.003.003-.005.005 0 0 0 0-.001.001s-.003.003-.004.005c0 0 0 0-.001.001-.002.001-.003.003-.005.005 0 0 0 0-.001.001l-.005.005c-1.896 1.957-1.877 5.08.056 7.014.977.976 2.256 1.464 3.536 1.464 1.268 0 2.536-.479 3.509-1.438.306-.29 15.453-14.293 52.767-12.793 20.993.846 37.089-4.183 47.846-14.939 22.043-22.043 22.043-57.909 0-79.952-10.678-10.678-24.875-16.559-39.976-16.559s-29.298 5.88-39.976 16.559c-10.756 10.756-15.783 26.854-14.939 47.846 1.508 37.517-12.653 52.623-12.767 52.741-.004.003-.005.005-.007.007z"/><path d="m333.974 227.297c9.78-2.93 18.59-8.73 25.16-16.76l19.166-23.488-68.276-68.276-23.39 19.104c-8.05 6.56-13.87 15.36-16.81 25.14 15.46 3.63 29.64 11.5 41.15 23.01 11.78 11.78 19.45 26.13 23 41.27z"/><path d="m488.004 9.007c-11.17-11.17-28.83-12.06-41.07-2.06l-113.558 92.753 63.987 63.987 92.711-113.619c9.99-12.231 9.1-29.891-2.07-41.061z"/></g></svg>